<svg t="1666456575106" class="icon" viewBox="0 0 1024 1024" version="1.1" xmlns="http://www.w3.org/2000/svg" p-id="3304" width="200" height="200"><path d="M512 64c249.6 0 448 198.4 448 448s-198.4 448-448 448-448-198.4-448-448 198.4-448 448-448z m0 64C300.8 128 128 300.8 128 512s172.8 384 384 384 384-172.8 384-384-172.8-384-384-384zM377.6 256L512 390.4 646.4 256l44.8 44.8L544 448h128v64h-128v64h128v64h-128v128h-64v-128h-128V576h128V512h-128V448h128L332.8 300.8l44.8-44.8z" p-id="3305"></path></svg>
