<?xml version="1.0" standalone="no"?><!DOCTYPE svg PUBLIC "-//W3C//DTD SVG 1.1//EN" "http://www.w3.org/Graphics/SVG/1.1/DTD/svg11.dtd"><svg t="1663598709275" class="icon" viewBox="0 0 1024 1024" version="1.1" xmlns="http://www.w3.org/2000/svg" p-id="34730" xmlns:xlink="http://www.w3.org/1999/xlink" width="200" height="200"><path d="M804.1472 293.96992H672.99328l152.0128-120.27904a23.63392 23.63392 0 0 0-29.31712-37.07904L596.81792 293.96992H427.18208l-198.8608-157.34784a23.6544 23.6544 0 0 0-29.31712 37.07904l152.0128 120.27904H219.8528c-43.45856 0-78.81728 35.34848-78.81728 78.81728v413.81888c0 43.45856 35.35872 78.81728 78.81728 78.81728h584.2944c43.45856 0 78.81728-35.34848 78.81728-78.81728V372.7872c0-43.45856-35.35872-78.81728-78.81728-78.81728z m31.55968 492.63616a31.5904 31.5904 0 0 1-31.55968 31.54944H219.8528a31.5904 31.5904 0 0 1-31.55968-31.54944V372.7872a31.5904 31.5904 0 0 1 31.55968-31.54944h584.2944a31.5904 31.5904 0 0 1 31.55968 31.54944v413.81888z" fill="#C451AE" p-id="34731"></path><path d="M657.92 552.15104L444.25216 428.77952a23.6544 23.6544 0 0 0-35.45088 20.45952v246.7328a23.6032 23.6032 0 0 0 23.63392 23.62368 23.7568 23.7568 0 0 0 11.81696-3.16416L657.92 593.07008a23.61344 23.61344 0 0 0 0-40.91904zM456.06912 655.0528V490.16832l142.78656 82.44224-142.78656 82.44224z" fill="#C451AE" p-id="34732"></path></svg>