<svg t="1666702072157" class="icon" viewBox="0 0 1024 1024" version="1.1" xmlns="http://www.w3.org/2000/svg" p-id="2119" width="200" height="200"><path d="M640 170.666667a85.333333 85.333333 0 0 1 85.12 78.933333L725.333333 256v384a42.666667 42.666667 0 0 1-85.034666 4.992L640 640V256H170.666667v426.666667h85.333333a42.666667 42.666667 0 0 1 4.992 85.034666L256 768H170.666667a85.333333 85.333333 0 0 1-85.12-78.933333L85.333333 682.666667V256a85.333333 85.333333 0 0 1 78.933334-85.12L170.666667 170.666667h469.333333z" fill="#049DEE" p-id="2120"></path><path d="M597.333333 682.666667a42.666667 42.666667 0 0 1 4.992 85.034666L597.333333 768h-170.666666a42.666667 42.666667 0 0 1-4.992-85.034667L426.666667 682.666667h170.666666zM783.914667 298.666667a85.333333 85.333333 0 0 1 73.514666 41.045333l3.370667 6.058667 73.386667 147.2a42.666667 42.666667 0 0 1 4.181333 14.08L938.666667 512v170.666667a85.333333 85.333333 0 0 1-78.933334 85.12L853.333333 768h-85.333333a42.666667 42.666667 0 0 1-4.992-85.034667L768 682.666667h85.333333v-160.64L784.512 384H682.666667a42.666667 42.666667 0 0 1-4.992-85.034667L682.666667 298.666667h101.248z" fill="#049DEE" p-id="2121"></path><path d="M341.333333 597.333333a128 128 0 1 1 0 256 128 128 0 0 1 0-256z m341.333334 0a128 128 0 1 1 0 256 128 128 0 0 1 0-256z m-341.333334 85.333334a42.666667 42.666667 0 1 0 0 85.333333 42.666667 42.666667 0 0 0 0-85.333333z m341.333334 0a42.666667 42.666667 0 1 0 0 85.333333 42.666667 42.666667 0 0 0 0-85.333333z" fill="#03CD8E" p-id="2122"></path></svg>
