<svg t="1666456809072" class="icon" viewBox="0 0 1024 1024" version="1.1" xmlns="http://www.w3.org/2000/svg" p-id="4382" width="200" height="200"><path d="M927.7 480.3H96.2c-17.6 0-32 14.4-32 31.8 0 17.6 14.4 31.8 32 31.8h831.6c17.6 0 32-14.4 32-31.8-0.1-17.7-14.5-31.8-32.1-31.8z m-31.9 159.2c-17.6 0-32 14.2-32 31.8v159.2c0 17.6-14.4 31.8-32 31.8H639.9c-17.6 0-32 14.4-32 31.8 0 17.6 14.4 31.8 32 31.8h191.9c52.9 0 95.9-42.8 95.9-95.5V671c0-17.4-14.3-31.5-31.9-31.5zM352 862.3H192.1c-17.6 0-32-14.4-32-31.8V671.2c0-17.6-14.4-31.8-32-31.8s-32 14.2-32 31.8v159.2c0 52.7 43 95.5 95.9 95.5h159.9c17.6 0 32-14.4 32-31.8 0.1-17.6-14.2-31.8-31.9-31.8zM128.1 384.6c17.6 0 32-14.4 32-31.8V193.6c0-17.6 14.4-31.8 32-31.8H352c17.6 0 32-14.4 32-31.8 0-17.6-14.4-31.8-32-31.8H192.1c-52.9 0-95.9 42.8-95.9 95.5v159.4c0 17.4 14.3 31.5 31.9 31.5z m511.8-222.7h191.9c17.6 0 32 14.4 32 31.8v159.2c0 17.6 14.4 31.8 32 31.8s32-14.4 32-31.8V193.6c0-52.7-43-95.5-95.9-95.5h-192c-17.6 0-32 14.4-32 31.8-0.1 17.7 14.3 32 32 32z" fill="" p-id="4383"></path></svg>
