<svg t="1666456916662" class="icon" viewBox="0 0 1028 1024" version="1.1" xmlns="http://www.w3.org/2000/svg" p-id="2347" width="200" height="200"><path d="M510.949 2.129C229.934 2.129 0.013 232.049 0.013 513.064S229.934 1024 510.95 1024s510.935-229.921 510.935-510.936c0-283.143-227.792-510.935-510.935-510.935z m0 958.004c-246.952 0-447.069-200.116-447.069-447.069S263.997 65.996 510.95 65.996s447.068 200.116 447.068 447.068-200.116 447.07-447.068 447.07zM823.897 289.53c-14.902-12.773-36.191-10.644-46.836 2.129L459.855 642.927 278.9 493.904c-14.902-10.644-34.062-8.515-46.836 4.258-10.644 14.902-10.644 34.063 4.258 46.836L442.824 715.31c6.387 4.258 12.774 6.386 19.16 6.386h6.387c8.515 0 14.902-4.257 21.289-10.644l336.366-372.557c12.773-14.902 10.644-36.191-2.13-48.965z" p-id="2348"></path></svg>
