<?xml version="1.0" standalone="no"?><!DOCTYPE svg PUBLIC "-//W3C//DTD SVG 1.1//EN" "http://www.w3.org/Graphics/SVG/1.1/DTD/svg11.dtd"><svg t="1663597684637" class="icon" viewBox="0 0 1030 1024" version="1.1" xmlns="http://www.w3.org/2000/svg" p-id="2718" xmlns:xlink="http://www.w3.org/1999/xlink" width="201.171875" height="200"><path d="M305.344155 49.841473l-262.237412 278.525371a158.46425 158.46425 0 0 0 6.700011 223.988305L550.754527 1024l437.91376-68.026934 41.599111-441.225259L529.358131 43.090121a158.477085 158.477085 0 0 0-224.013976 6.751352z m498.752942 731.61042a160.890116 160.890116 0 1 1-6.8412-227.428158 160.890116 160.890116 0 0 1 6.8412 227.389652z" fill="#C59BC1" p-id="2719"></path><path d="M688.72085 672.775657m-102.823352 0a102.823352 102.823352 0 1 0 205.646704 0 102.823352 102.823352 0 1 0-205.646704 0Z" fill="#C59BC1" p-id="2720"></path></svg>