<svg xmlns="http://www.w3.org/2000/svg" fill="none" viewBox="0 0 110 110" height="110" width="110">
    <mask height="110" width="110" y="0" x="0" maskUnits="userSpaceOnUse" style="mask-type:alpha" id="mask0_1:816">
        <rect fill="#C4C4C4" height="110" width="110"></rect>
    </mask>
    <g mask="url(#mask0_1:816)">
        <path fill="#FAB5A3" d="M41.2125 89.7756C41.2125 89.7756 41.9376 94.0456 41.8543 95.7109C40.5315 97.0421 32.9703 99.088 33.6987 99.3304C35.9355 100.075 43.7963 105.917 49.9119 105.813C56.5603 105.701 62.7105 99.4076 64.0364 98.9707C64.5053 98.8161 58.5 97.5 58.0309 95.7109C57.3378 95.3799 58.0309 89.7756 58.0309 89.7756H41.2125Z" clip-rule="evenodd" fill-rule="evenodd"></path>
        <mask height="17" width="32" y="89" x="33" maskUnits="userSpaceOnUse" style="mask-type:alpha" id="mask1_1:816">
            <path fill="white" d="M41.2125 89.7756C41.2125 89.7756 41.9376 94.0456 41.8543 95.7109C40.5315 97.0421 32.9703 99.088 33.6987 99.3304C35.9355 100.075 43.7963 105.917 49.9119 105.813C56.5603 105.701 62.7105 99.4076 64.0364 98.9707C64.5053 98.8161 58.0309 97 58.0309 95.7109C57 94.5 58.0309 89.7756 58.0309 89.7756H41.2125Z" clip-rule="evenodd" fill-rule="evenodd"></path>
        </mask>
        <g mask="url(#mask1_1:816)">
            <path fill="white" d="M42.0913 99.5115C42.0913 99.5115 49.7398 101.446 58.4311 99.2502C69.6426 97.5169 49.8611 108.756 49.6428 108.665C49.4244 108.575 39.2884 105.898 39.3914 105.546C39.4944 105.193 42.0913 99.5115 42.0913 99.5115Z" clip-rule="evenodd" fill-rule="evenodd"></path>
            <g opacity="0.348749" style="mix-blend-mode:multiply">
                <path fill="#E89A85" d="M38.2568 87.9804C38.2568 87.9804 45.4406 95.3606 57.9577 95.9611C67.8721 97.0076 60.509 84.5199 60.5415 84.5692C60.5739 84.6184 38.2568 87.9804 38.2568 87.9804Z" clip-rule="evenodd" fill-rule="evenodd"></path>
            </g>
        </g>
        <path fill="#FF5A5A" d="M37.202 97.8998L39.1949 97.1965C39.1949 97.1965 46.6567 100.676 49.4491 102.646C52.4843 100.56 59.8458 97.1965 59.8458 97.1965L62.8813 98.1514L53.4453 106.586L41.1034 106.284L37.202 97.8998Z" clip-rule="evenodd" fill-rule="evenodd"></path>
        <path fill="#5A6ED5" d="M37.2018 97.8998C37.2018 97.8998 24.41 99.9294 21.8446 100.744C21.6771 100.797 21.2286 101.162 21.0858 101.209C19.6209 101.688 17.8038 101.92 17.0826 102.231C11.3453 104.445 10 110.194 10 110.194H90C90 110.194 89.4759 104.656 83.6516 102.402C82.6771 102.025 80.6659 101.489 79.3056 101.04C79.1651 100.994 79.0485 100.779 78.8914 100.728C76.0233 99.8081 61.7712 97.752 61.7712 97.752C61.7712 97.752 51.4275 104.818 49.5092 106.454C47.2025 104.552 37.2018 97.8998 37.2018 97.8998Z" clip-rule="evenodd" fill-rule="evenodd"></path>
        <mask height="14" width="80" y="97" x="10" maskUnits="userSpaceOnUse" style="mask-type:alpha" id="mask2_1:816">
            <path fill="white" d="M37.2018 97.8998C37.2018 97.8998 24.41 99.9294 21.8446 100.744C21.6771 100.797 21.2286 101.162 21.0858 101.209C19.6209 101.688 17.8038 101.92 17.0826 102.231C11.3453 104.445 10 110.194 10 110.194H90C90 110.194 89.4759 104.656 83.6516 102.402C82.6771 102.025 80.6659 101.489 79.3056 101.04C79.1651 100.994 79.0485 100.779 78.8914 100.728C76.0233 99.8081 61.7712 97.752 61.7712 97.752C61.7712 97.752 51.4275 104.818 49.5092 106.454C47.2025 104.552 37.2018 97.8998 37.2018 97.8998Z" clip-rule="evenodd" fill-rule="evenodd"></path>
        </mask>
        <g mask="url(#mask2_1:816)">
            <path fill="#2D3669" d="M31.4554 102.74C31.4554 102.74 35.7223 108.823 34.8837 114.206C34.9295 118.708 64.4984 114.603 64.4984 114.603C64.4984 114.603 65.3032 103.188 68.087 102.7C65.1875 100.529 31.4554 102.74 31.4554 102.74Z" clip-rule="evenodd" fill-rule="evenodd"></path>
            <g opacity="0.395043" style="mix-blend-mode:multiply">
                <path fill="#2D3669" d="M51.6782 111.054C51.6782 111.054 68.0113 101.739 83.4216 99.6126C91.6575 100.64 79.1877 97.1965 79.1877 97.1965L60.3416 100.376L50.1196 111.054H51.6782Z" clip-rule="evenodd" fill-rule="evenodd"></path>
            </g>
            <g opacity="0.395043" style="mix-blend-mode:multiply">
                <path fill="#2D3669" d="M49.8728 112.042C49.8728 112.042 33.5396 102.728 18.1293 100.601C9.89339 101.629 22.3632 98.1853 22.3632 98.1853L41.2094 101.365L51.4313 112.042H49.8728Z" clip-rule="evenodd" fill-rule="evenodd"></path>
            </g>
            <path fill="#1D2343" d="M19.1368 99.9839C19.1368 99.9839 31.1582 102.547 36.3824 104.768C41.6066 106.989 49.8457 111.503 49.8457 111.503C49.8457 111.503 55.9767 107.593 62.1874 105.073C68.398 102.554 79.5116 99.5606 79.5116 99.5606L47.309 90.8045L19.1368 99.9839Z" clip-rule="evenodd" fill-rule="evenodd"></path>
            <g opacity="0.395043" style="mix-blend-mode:multiply">
                <path fill="#2D3669" d="M20.0019 115.238L21.4683 107.234L22.4121 115.238H20.0019Z" clip-rule="evenodd" fill-rule="evenodd"></path>
            </g>
            <g opacity="0.395043" style="mix-blend-mode:multiply">
                <path fill="#2D3669" d="M77.1007 115.95L78.5671 107.946L79.5109 115.95H77.1007Z" clip-rule="evenodd" fill-rule="evenodd"></path>
            </g>
        </g>
        <path fill="#FAB5A3" d="M70.9763 56.1358C70.9763 56.1358 78.4379 52.5452 82.9574 56.1358C87.477 59.7264 81.7984 70.4805 72.6649 69.9141C63.5313 69.3478 70.9763 56.1358 70.9763 56.1358Z" clip-rule="evenodd" fill-rule="evenodd"></path>
        <path fill="#C26B6B" d="M80.6354 57.7749C80.5605 57.572 80.3345 57.4679 80.1304 57.5423C77.1811 58.6182 75.2053 60.9736 74.2153 64.567C74.1578 64.7755 74.2812 64.9907 74.4908 65.0478C74.7004 65.1049 74.9169 64.9823 74.9743 64.7738C75.4269 63.1312 76.0894 61.7773 76.9631 60.7076C77.0019 60.7292 77.045 60.7445 77.0914 60.7521C78.3896 60.9646 79.1547 61.5123 79.4523 62.4014C79.5209 62.6064 79.7437 62.7173 79.9499 62.6491C80.1561 62.5808 80.2676 62.3593 80.199 62.1542C79.8306 61.0535 78.9358 60.3493 77.5667 60.0465C78.3664 59.2637 79.3111 58.6748 80.4015 58.277C80.6055 58.2026 80.7102 57.9778 80.6354 57.7749Z" clip-rule="evenodd" fill-rule="evenodd"></path>
        <path fill="#FAB5A3" d="M28.7844 57.2708C28.7844 57.2708 21.3229 53.6802 16.8033 57.2708C12.2837 60.8614 17.9623 71.6155 27.0959 71.0492C36.2295 70.4828 28.7844 57.2708 28.7844 57.2708Z" clip-rule="evenodd" fill-rule="evenodd"></path>
        <path fill="#C26B6B" d="M19.1254 58.9099C19.2002 58.707 19.4263 58.6029 19.6303 58.6773C22.5796 59.7532 24.5554 62.1086 25.5455 65.702C25.6029 65.9105 25.4796 66.1257 25.27 66.1828C25.0604 66.24 24.8439 66.1173 24.7865 65.9088C24.3339 64.2662 23.6714 62.9124 22.7976 61.8426C22.7589 61.8642 22.7157 61.8795 22.6694 61.8871C21.3711 62.0996 20.6061 62.6473 20.3085 63.5364C20.2398 63.7414 20.017 63.8523 19.8108 63.7841C19.6046 63.7158 19.4931 63.4943 19.5617 63.2892C19.9302 62.1885 20.8249 61.4843 22.1941 61.1815C21.3943 60.3987 20.4497 59.8098 19.3593 59.4121C19.1552 59.3376 19.0505 59.1128 19.1254 58.9099Z" clip-rule="evenodd" fill-rule="evenodd"></path>
        <path fill="#FFD4C6" d="M22.2174 47.0033C20.4093 32.3338 31.1722 19.1074 45.9029 17.8963L48.7808 17.6597C64.8855 16.3356 78.2878 29.8612 76.8164 45.9531L74.6545 69.5962C73.4958 82.2683 62.8307 91.9451 50.1059 91.8699C37.3671 91.9457 26.5893 82.4719 25.0309 69.8284L22.2174 47.0033Z" clip-rule="evenodd" fill-rule="evenodd"></path>
        <mask height="75" width="55" y="17" x="22" maskUnits="userSpaceOnUse" style="mask-type:alpha" id="mask3_1:816">
            <path fill="white" d="M22.2174 47.0033C20.4093 32.3338 31.1722 19.1074 45.9029 17.8963L48.7808 17.6597C64.8855 16.3356 78.2878 29.8612 76.8164 45.9531L74.6545 69.5962C73.4958 82.2683 62.8307 91.9451 50.1059 91.8699C37.3671 91.9457 26.5893 82.4719 25.0309 69.8284L22.2174 47.0033Z" clip-rule="evenodd" fill-rule="evenodd"></path>
        </mask>
        <g mask="url(#mask3_1:816)">
            <circle fill="#FFA2A2" r="6.91227" cy="76.4118" cx="69.132" opacity="0.624907"></circle>
            <ellipse fill="#FFA2A2" ry="7.37309" rx="8.29473" cy="76.8727" cx="29.9627" opacity="0.624907"></ellipse>
            <path fill="#422E23" d="M44.709 40.9288L56.2294 43.1097C56.2294 43.1097 61.2984 50.022 69.5932 51.8652C75.5838 51.8652 78.3487 58.7775 78.3487 58.7775L80.7641 40.9288H44.709Z" clip-rule="evenodd" fill-rule="evenodd"></path>
            <path fill="#422E23" d="M42.2227 41.8505C42.2227 41.8505 38.9969 47.535 33.0063 50.2999C27.0157 53.0649 24.8154 54.8379 23.2239 56.757C21.6324 58.6761 21.2818 64.3624 21.2818 64.3624L17.9823 41.8505H42.2227Z" clip-rule="evenodd" fill-rule="evenodd"></path>
            <path stroke-linecap="round" stroke-width="1.34396" stroke="#DA7B7B" d="M46.1848 79.3854C46.1848 79.3854 47.385 80.1953 50.1499 79.85C52.9149 79.5047 53.9617 78.1501 53.9617 78.1501"></path>
            <rect fill="#83573D" rx="2.98657" height="7.37309" width="6.45146" y="60.2832" x="59.4551"></rect>
            <rect fill="#83573D" rx="2.98657" height="7.37309" width="6.45146" y="60.2832" x="33.6494"></rect>
            <path fill="#65422D" d="M57.1885 57.3953C57.1885 57.3953 63.9842 55.5423 66.5258 55.5952C62.1577 49.2324 57.1885 57.3953 57.1885 57.3953Z" clip-rule="evenodd" fill-rule="evenodd"></path>
            <path fill="#65422D" d="M41.3418 57.3953C41.3418 57.3953 34.5461 55.5423 32.0045 55.5952C36.3726 49.2324 41.3418 57.3953 41.3418 57.3953Z" clip-rule="evenodd" fill-rule="evenodd"></path>
            <path fill="#F28080" d="M49.9266 61.2114C50.2292 61.2591 50.4372 61.5524 50.3913 61.8664L50.2887 62.5748C49.9077 65.2388 49.6643 67.3117 49.5584 68.7899L49.5454 68.9794C49.4934 69.7689 49.4841 70.37 49.5158 70.7742C49.5242 70.881 49.5353 70.9706 49.5479 71.0415L49.5568 71.0888L49.5819 71.0948C49.9659 71.1692 50.767 71.0675 51.9224 70.7573L52.301 70.6518C52.5959 70.5668 52.9014 70.7459 52.9833 71.052C53.0653 71.358 52.8926 71.675 52.5978 71.7601C50.7887 72.2817 49.6179 72.4124 48.9608 72.0881C48.0732 71.65 48.2653 68.733 49.2955 61.6937C49.3379 61.4038 49.5819 61.1975 49.8572 61.205L49.9266 61.2114Z"></path>
        </g>
        <path fill="#2D3669" d="M89.1613 27.1043V51.2796H88.5977V27.1043H89.1613Z"></path>
        <path fill="#1D2343" d="M87.1885 35.5576V46.1242C87.1885 46.1242 88.3396 46.5956 88.9152 46.5956C89.4908 46.5956 90.5704 46.1242 90.5704 46.1242V35.5576C90.5704 35.5576 89.3728 35.1156 88.8027 35.1156C88.2327 35.1156 87.1885 35.5576 87.1885 35.5576Z" clip-rule="evenodd" fill-rule="evenodd"></path>
        <path fill="#5A6ED5" d="M87.7147 48.5347L90.031 48.0765C90.031 48.0765 90.6299 72.2683 92.1904 75.2202C90.2714 76.1297 88.3792 76.1213 87.0213 75.5734C86.8897 75.5202 86.816 74.7165 86.7745 74.6186C86.7261 74.7462 86.5422 75.1704 86.4061 75.2592C85.865 75.0426 85.2607 74.1602 85.2607 74.1602L87.7147 48.5347Z" clip-rule="evenodd" fill-rule="evenodd"></path>
        <mask height="28" width="8" y="48" x="85" maskUnits="userSpaceOnUse" style="mask-type:alpha" id="mask4_1:816">
            <path fill="white" d="M87.7147 48.5347L90.031 48.0765C90.031 48.0765 90.6299 72.2683 92.1904 75.2202C90.2714 76.1297 88.3792 76.1213 87.0213 75.5734C86.8897 75.5202 86.816 74.7165 86.7745 74.6186C86.7261 74.7462 86.5422 75.1704 86.4061 75.2592C85.865 75.0426 85.2607 74.1602 85.2607 74.1602L87.7147 48.5347Z" clip-rule="evenodd" fill-rule="evenodd"></path>
        </mask>
        <g mask="url(#mask4_1:816)">
            <path fill="#3E50AE" d="M90.091 48.1704C90.091 48.1704 90.4117 55.1184 90.2086 61.5352C90.0056 67.9519 89.308 75.9115 84.6322 78.6927C80.9446 79.3122 108.532 93.1362 108.255 92.9211C107.978 92.7061 98.9523 48.3262 98.9523 48.3262L90.091 48.1704Z" clip-rule="evenodd" fill-rule="evenodd"></path>
            <path fill="#3E50AE" d="M85.9307 75.2793C85.9307 75.2793 86.8038 71.303 86.9868 67.8528C87.1998 75.4493 86.9868 76.3983 86.9868 76.3983L85.9307 75.2793Z" clip-rule="evenodd" fill-rule="evenodd"></path>
        </g>
        <path fill="#141932" d="M49.0072 14.0006C47.048 14.0954 6.40944 26.3696 6.00284 27.603C5.59623 28.8364 49.0057 38.6248 49.0057 38.6248C49.0057 38.6248 92.6117 28.8471 91.6981 27.3783C88.531 25.4239 50.9664 13.9058 49.0072 14.0006Z" clip-rule="evenodd" fill-rule="evenodd"></path>
        <mask height="25" width="86" y="14" x="6" maskUnits="userSpaceOnUse" style="mask-type:alpha" id="mask5_1:816">
            <path fill="white" d="M49.0072 14.0006C47.048 14.0954 6.40944 26.3696 6.00284 27.603C5.59623 28.8364 49.0072 38.6248 49.0072 38.6248C49.0072 38.6248 92.6117 28.8471 91.6981 27.3783C88.531 25.4239 50.9664 13.9058 49.0072 14.0006Z" clip-rule="evenodd" fill-rule="evenodd"></path>
        </mask>
        <g mask="url(#mask5_1:816)">
            <g opacity="0.20738" style="mix-blend-mode:multiply">
                <path fill="#141932" d="M47.4514 15.6942C47.4514 15.6942 60.2904 23.5963 47.9219 23.213C35.5534 22.8297 25.4985 26.772 22.2561 32.4688C19.0138 38.1656 89.8696 41.1261 89.8696 41.1261L101.505 18.4556L48.7797 12.2609L47.4514 15.6942Z" clip-rule="evenodd" fill-rule="evenodd"></path>
            </g>
            <path fill="#1D2343" d="M7.27087 28.4857C7.27087 28.4857 47.0995 15.7496 48.8575 15.5193C50.6156 15.289 90.8499 27.9985 90.8499 27.9985L98.1295 22.9461L55.0478 -2.67914L-0.571289 20.1118L3.39795 30.42L7.27087 28.4857Z" clip-rule="evenodd" fill-rule="evenodd"></path>
        </g>
        <path fill="#141932" d="M22.5295 32.3889C22.5295 32.3889 20.434 42.0911 20.8007 48.6588C41.7295 52.9767 65.8441 51.2104 78.3761 47.4042C78.0971 39.992 75.871 32.3889 75.871 32.3889C75.871 32.3889 61.4389 25.4813 49.1165 25.261C36.2456 25.6456 22.5295 32.3889 22.5295 32.3889Z" clip-rule="evenodd" fill-rule="evenodd"></path>
        <mask height="27" width="59" y="25" x="20" maskUnits="userSpaceOnUse" style="mask-type:alpha" id="mask6_1:816">
            <path fill="white" d="M22.5295 32.3889C22.5295 32.3889 20.434 42.0911 20.8007 48.6588C41.7295 52.9767 65.8441 51.2104 78.3761 47.4042C78.0971 39.992 75.871 32.3889 75.871 32.3889C75.871 32.3889 61.4389 25.4813 49.1165 25.261C36.2456 25.6456 22.5295 32.3889 22.5295 32.3889Z" clip-rule="evenodd" fill-rule="evenodd"></path>
        </mask>
        <g mask="url(#mask6_1:816)">
            <g opacity="0.22" style="mix-blend-mode:multiply">
                <path fill="#10142A" d="M65.103 28.198C65.103 28.198 57.2648 30.6343 50.8134 39.4598C44.3619 48.2853 11.2881 47.9838 11.2881 47.9838C11.2881 47.9838 100.619 63.5903 101.061 61.9827C101.503 60.3751 85.565 34.3871 85.565 33.0602C85.565 31.7334 65.103 28.198 65.103 28.198Z" clip-rule="evenodd" fill-rule="evenodd"></path>
            </g>
        </g>
    </g>
</svg>
